# xmcd
#
# Track frame offsets:
#	150
#	19051
#	37837
#	53448
#	74256
#	91550
#	108872
#	123424
#	138136
#	154151
#	170504
#	189462
#	207725
#	223360
#	239493
#	256035
#	273691
#
# Disc length: 3870
#
# Revision: 2
# Processed by: cddbd v1.5.1PL0 Copyright (c) Steve Scherf et al.
# Submitted via: VOLTOCDX V1.0.24 
# Normalized: r1:TSWAP
#
DISCID=ec0f1c11
DTITLE=Various Artist - Music Maestro Country Hits IV - Disc 3
DYEAR=2004
DGENRE=Karaoke
TTITLE0=Martina McBride - Concrete Angel
TTITLE1=Brooks - Dunn - Red Dirt Road
TTITLE2=Randy Travis - Three Wooden Crosses
TTITLE3=Willie Nelson - Lee Ann Womack - Mendocino County Line
TTITLE4=Kenny Chesney - Big Star
TTITLE5=Rascal Flatts - These Days
TTITLE6=Jim Brickman - Martina McBride - Valentine
TTITLE7=Kenny Chesney - How Forever Feels
TTITLE8=Weird Al Yankovic - Achy Breaky Song
TTITLE9=Jessica Andrews - There's More To Me Than You
TTITLE10=Gary Allen - The One
TTITLE11=Shedaisy - Mine All Mine
TTITLE12=Kenny Chesney - The Good Stuff
TTITLE13=Alan Jackson - That'd Be Alright
TTITLE14=George Strait - Cowboys Like Us
TTITLE15=Shania Twain - She's Not Just A Pretty Face
TTITLE16=Billy Currington - Walk A Little Straighter
EXTD=
EXTT0=
EXTT1=
EXTT2=
EXTT3=
EXTT4=
EXTT5=
EXTT6=
EXTT7=
EXTT8=
EXTT9=
EXTT10=
EXTT11=
EXTT12=
EXTT13=
EXTT14=
EXTT15=
EXTT16=
PLAYORDER=
